<svg xmlns="http://www.w3.org/2000/svg" width="66.489" height="66.489" viewBox="0 0 66.489 66.489"><defs><style>.a{fill:#fff;}</style></defs><g transform="translate(0 22.596)"><path class="a" d="M44.932,192.83a1.3,1.3,0,0,0-1.3,1.3v8.96a6.5,6.5,0,0,1-6.493,6.493H23.119a1.3,1.3,0,0,0-1.3,1.3l0,2.582-3.1-3.1a1.3,1.3,0,0,0-1.191-.78H9.09A6.5,6.5,0,0,1,2.6,203.089v-20A6.5,6.5,0,0,1,9.09,176.6H22.206a1.3,1.3,0,0,0,0-2.6H9.09A9.1,9.1,0,0,0,0,183.09v20a9.1,9.1,0,0,0,9.09,9.09h7.773l5.333,5.333a1.3,1.3,0,0,0,2.217-.917l0-4.416H37.14a9.1,9.1,0,0,0,9.09-9.09v-8.96A1.3,1.3,0,0,0,44.932,192.83Z" transform="translate(0 -174)"/></g><g transform="translate(25.453)"><path class="a" d="M218.161,0h-3.287a18.875,18.875,0,0,0,0,37.749h3.287a18.911,18.911,0,0,0,4.791-.614l4.855,4.852a1.3,1.3,0,0,0,2.217-.918V33.556a19.055,19.055,0,0,0,4.961-6.117,18.671,18.671,0,0,0,2.051-8.564A18.9,18.9,0,0,0,218.161,0Zm9.782,31.885a1.3,1.3,0,0,0-.517,1.037v5.013l-3.178-3.176a1.3,1.3,0,0,0-1.3-.323,16.282,16.282,0,0,1-4.788.716h-3.287a16.277,16.277,0,0,1,0-32.555h3.287a16.278,16.278,0,0,1,9.782,29.288Z" transform="translate(-196)"/></g><g transform="translate(40.836 9.098)"><path class="a" d="M325.444,75.174a5.511,5.511,0,0,0-5.1-5.1,5.456,5.456,0,0,0-4.138,1.465,5.517,5.517,0,0,0-1.747,4.02,1.3,1.3,0,1,0,2.6,0,2.9,2.9,0,0,1,3.109-2.893,2.9,2.9,0,0,1,.429,5.724,2.458,2.458,0,0,0-1.936,2.409v3.12a1.3,1.3,0,1,0,2.6,0V80.9A5.47,5.47,0,0,0,325.444,75.174Z" transform="translate(-314.462 -70.063)"/></g><g transform="translate(45.036 26.794)"><path class="a" d="M349.017,206.71a1.3,1.3,0,1,0,.38.918A1.308,1.308,0,0,0,349.017,206.71Z" transform="translate(-346.8 -206.33)"/></g><g transform="translate(7.012 40.257)"><path class="a" d="M82.7,310H55.3a1.3,1.3,0,0,0,0,2.6H82.7a1.3,1.3,0,0,0,0-2.6Z" transform="translate(-54 -310)"/></g><g transform="translate(34.413 47.529)"><path class="a" d="M267.217,366.381a1.3,1.3,0,1,0,.381.918A1.308,1.308,0,0,0,267.217,366.381Z" transform="translate(-265 -366)"/></g><g transform="translate(7.012 47.529)"><path class="a" d="M77.591,366H55.3a1.3,1.3,0,0,0,0,2.6H77.591a1.3,1.3,0,0,0,0-2.6Z" transform="translate(-54 -366)"/></g><g transform="translate(7.012 32.985)"><path class="a" d="M74.258,254H55.3a1.3,1.3,0,1,0,0,2.6h18.96a1.3,1.3,0,1,0,0-2.6Z" transform="translate(-54 -254)"/></g></svg>