<svg xmlns="http://www.w3.org/2000/svg" width="38.816" height="45.54" viewBox="0 0 38.816 45.54"><defs><style>.a{fill:#c1c1c1;stroke:#fff;stroke-width:0.5px;}</style></defs><g transform="translate(-35.82 0.25)"><g transform="translate(36.073)"><path class="a" d="M146.653,24.269h.3a8.607,8.607,0,0,0,6.576-2.845c3.591-4.048,2.994-10.987,2.929-11.649-.233-4.971-2.584-7.35-4.524-8.46A10.37,10.37,0,0,0,146.914,0h-.159a10.386,10.386,0,0,0-5.018,1.278c-1.959,1.11-4.346,3.488-4.58,8.5-.065.662-.662,7.6,2.929,11.649A8.572,8.572,0,0,0,146.653,24.269Zm-7-14.261c0-.028.009-.056.009-.075.308-6.687,5.055-7.406,7.088-7.406h.112c2.518.056,6.8,1.082,7.088,7.406a.182.182,0,0,0,.009.075c.009.065.662,6.408-2.3,9.747a6.113,6.113,0,0,1-4.8,2h-.093a6.093,6.093,0,0,1-4.794-2C139,16.434,139.639,10.064,139.648,10.008Z" transform="translate(-127.661)"/><path class="a" d="M74.381,270.843v-.028c0-.075-.009-.149-.009-.233-.056-1.847-.177-6.165-4.225-7.545l-.093-.028a26.913,26.913,0,0,1-7.741-3.526,1.259,1.259,0,1,0-1.446,2.061,29.051,29.051,0,0,0,8.515,3.889c2.173.774,2.416,3.1,2.481,5.223a1.872,1.872,0,0,0,.009.233,16.93,16.93,0,0,1-.2,2.882A34.324,34.324,0,0,1,55.233,277.6a34.522,34.522,0,0,1-16.453-3.833,16.027,16.027,0,0,1-.2-2.882c0-.075.009-.149.009-.233.065-2.127.308-4.449,2.481-5.223a29.321,29.321,0,0,0,8.515-3.889,1.259,1.259,0,0,0-1.446-2.061A26.618,26.618,0,0,1,40.4,263c-.037.009-.065.019-.093.028-4.048,1.39-4.169,5.708-4.225,7.545a1.873,1.873,0,0,1-.009.233v.028a14.3,14.3,0,0,0,.476,4.225,1.2,1.2,0,0,0,.485.588c.28.187,6.986,4.458,18.206,4.458s17.926-4.281,18.206-4.458a1.248,1.248,0,0,0,.485-.588A15.006,15.006,0,0,0,74.381,270.843Z" transform="translate(-36.073 -235.065)"/></g></g></svg>