<svg xmlns="http://www.w3.org/2000/svg" width="48.864" height="45.04" viewBox="0 0 48.864 45.04"><defs><style>.a{fill:#c1c1c1;}</style></defs><g transform="translate(0 -20.036)"><g transform="translate(0 20.036)"><path class="a" d="M46.618,36.1H35.66l-7.7-14.854a2.244,2.244,0,0,0-3.524-.609,2.245,2.245,0,0,0-3.524.609l-8.12,15.657a2.238,2.238,0,0,0,.111,2.257H2.246a.814.814,0,0,1,0-1.629h8.16a.716.716,0,1,0,0-1.432H2.246a2.246,2.246,0,0,0-.61,4.407L5.782,62.62a3.012,3.012,0,0,0,2.959,2.456H40.123a3.012,3.012,0,0,0,2.959-2.456l4.146-22.11a2.246,2.246,0,0,0-.61-4.407ZM25.588,21.56a.814.814,0,0,1,1.1.348l8.12,15.657a.814.814,0,0,1-1.446.75L25.24,22.658A.815.815,0,0,1,25.588,21.56Zm9.532,19.034-.677,6.984H25.148V40.594ZM24.432,24.21l7.657,14.763q.051.1.11.189H16.665q.059-.091.11-.189l.747-1.439H28.417a.716.716,0,1,0,0-1.432H18.264ZM14.059,37.565l8.12-15.657a.814.814,0,1,1,1.446.75L15.5,38.315a.814.814,0,0,1-1.446-.75Zm-10.95,3.03h9.2l.677,6.984H4.418ZM4.686,49.01h8.437l.677,6.984H6ZM8.741,63.644a1.58,1.58,0,0,1-1.552-1.288l-.925-4.931h7.675l.6,6.219Zm14.975,0H15.98l-.6-6.219h8.339Zm0-7.65H15.238l-.677-6.984h9.155Zm0-8.415H14.422l-.677-6.984h9.971Zm9.167,16.066H25.148V57.425h8.339Zm.742-7.65H25.148V49.01H34.3Zm8.05,6.362a1.58,1.58,0,0,1-1.552,1.288h-5.8l.6-6.219H42.6Zm1.193-6.362h-7.8l.677-6.984h8.437Zm1.578-8.416H35.88l.677-6.984h9.2Zm2.172-8.415H35.965a2.24,2.24,0,0,0,.328-1.629H46.618a.814.814,0,1,1,0,1.629Z" transform="translate(0 -20.036)"/></g></g></svg>